<svg xmlns="http://www.w3.org/2000/svg" viewBox="0 5 100 60">
  <!-- Upper left wing -->
  <path d="M50,35 C46,22 28,6 12,14 C0,22 14,42 50,35Z" fill="#C9A84C"/>
  <!-- Upper right wing -->
  <path d="M50,35 C54,22 72,6 88,14 C100,22 86,42 50,35Z" fill="#C9A84C"/>
  <!-- Lower left wing -->
  <path d="M50,35 C42,42 22,54 25,47 C28,40 44,38 50,35Z" fill="#B8922E" opacity="0.82"/>
  <!-- Lower right wing -->
  <path d="M50,35 C58,42 78,54 75,47 C72,40 56,38 50,35Z" fill="#B8922E" opacity="0.82"/>
  <!-- Body -->
  <ellipse cx="50" cy="35" rx="1.4" ry="4" fill="#C9A84C" opacity="0.65"/>
  <!-- Antennae -->
  <path d="M49,32 C47,26 43,21 40,17" stroke="#C9A84C" stroke-width="0.9" fill="none" opacity="0.45"/>
  <path d="M51,32 C53,26 57,21 60,17" stroke="#C9A84C" stroke-width="0.9" fill="none" opacity="0.45"/>
  <circle cx="39" cy="16" r="1.4" fill="#C9A84C" opacity="0.4"/>
  <circle cx="61" cy="16" r="1.4" fill="#C9A84C" opacity="0.4"/>
</svg>
